<?xml version="1.0" encoding="utf-8"?>
<!-- Generator: Adobe Illustrator 24.0.1, SVG Export Plug-In . SVG Version: 6.00 Build 0)  -->
<svg version="1.1" id="Layer_1" xmlns="http://www.w3.org/2000/svg" xmlns:xlink="http://www.w3.org/1999/xlink" x="0px" y="0px"
	 viewBox="0 0 1024 1024" style="enable-background:new 0 0 1024 1024;" xml:space="preserve">
<style type="text/css">
	.Drop_x0020_Shadow{fill:none;}
	.Thick_x0020_Blue_x0020_Neon{fill:none;stroke:#0073BC;stroke-width:10;stroke-linecap:round;stroke-linejoin:round;}
	.Illuminating_x0020_Aqua{fill:url(#SVGID_1_);stroke:#FFFFFF;stroke-width:0.25;stroke-miterlimit:1;}
	.Black_x0020_Highlight{fill:url(#SVGID_2_);stroke:#FFFFFF;stroke-width:0.3629;stroke-miterlimit:1;}
	.Bugaboo_GS{fill-rule:evenodd;clip-rule:evenodd;fill:#FFDD00;}
	.st0{fill:url(#SVGID_3_);}
	.st1{fill:url(#SVGID_4_);}
	.st2{fill:url(#SVGID_5_);}
	.st3{fill:url(#SVGID_6_);}
	.st4{fill:url(#SVGID_7_);}
	.st5{fill:url(#SVGID_8_);}
	.st6{fill:url(#SVGID_9_);}
	.st7{fill:url(#SVGID_10_);}
	.st8{fill:url(#SVGID_11_);}
	.st9{fill:url(#SVGID_12_);}
	.st10{fill:url(#SVGID_13_);}
	.st11{fill:url(#SVGID_14_);}
	.st12{fill:url(#SVGID_15_);}
	.st13{fill:url(#SVGID_16_);}
	.st14{fill:url(#SVGID_17_);}
	.st15{fill:url(#SVGID_18_);}
	.st16{fill:url(#SVGID_19_);}
	.st17{fill:url(#SVGID_20_);}
	.st18{fill:url(#SVGID_21_);}
	.st19{fill:url(#SVGID_22_);}
	.st20{fill:url(#SVGID_23_);}
	.st21{fill:url(#SVGID_24_);}
</style>
<linearGradient id="SVGID_1_" gradientUnits="userSpaceOnUse" x1="512" y1="512" x2="512" y2="511">
	<stop  offset="0" style="stop-color:#1D59F4"/>
	<stop  offset="0.618" style="stop-color:#2D65EE"/>
	<stop  offset="0.6292" style="stop-color:#3864F3"/>
	<stop  offset="0.9831" style="stop-color:#00DDFC"/>
</linearGradient>
<linearGradient id="SVGID_2_" gradientUnits="userSpaceOnUse" x1="512" y1="512" x2="512" y2="511">
	<stop  offset="0" style="stop-color:#060606"/>
	<stop  offset="0.618" style="stop-color:#000000"/>
	<stop  offset="0.6292" style="stop-color:#000000"/>
	<stop  offset="0.9831" style="stop-color:#000000"/>
</linearGradient>
<g>
	<g>
		<g>
			<g>
				<linearGradient id="SVGID_3_" gradientUnits="userSpaceOnUse" x1="479.0533" y1="616.3865" x2="479.0533" y2="203.3133">
					<stop  offset="0" style="stop-color:#F14E9E"/>
					<stop  offset="1" style="stop-color:#F77678"/>
				</linearGradient>
				<path class="st0" d="M526.4,462L526.4,462c4-9.6,3.4-15.6-3.4-22.1c-7.2-7-14.1-14.3-21.8-20.7
					c-61.5-51.7-82.6-120.7-84.9-197.7c-0.1-4.9,0.3-9.8,0.4-14.8c-1.3-1.1-2.7-2.2-4-3.3c-7.1,7.3-16,13.5-21.1,22
					c-17,28.1-15.6,58.5-7.5,89c12.6,47.7,40.6,85.4,79.2,114.9c15.8,12.1,22.7,25.2,23,44.9c0.4,18.8,3.6,37.8,7.9,56.1
					c8,34,26.5,61,58,78.1c5.2,2.8,10,6.6,12.2,8l15.6-8.7c-39.2-23.1-61.6-57.9-62.4-104C517.2,489.7,521,474.9,526.4,462z"/>
				<linearGradient id="SVGID_4_" gradientUnits="userSpaceOnUse" x1="575.4324" y1="502.7457" x2="370.1082" y2="297.4216">
					<stop  offset="0" style="stop-color:#F14E9E"/>
					<stop  offset="1" style="stop-color:#F77678"/>
				</linearGradient>
				<path class="st1" d="M387.1,189.7L387.1,189.7c-18.3-57.7-19-116.1,1.3-177.7c-16.1,5-26.7,13.8-35.4,24.9
					c-27.3,35.1-37.5,75.4-34.3,119.2c1,13.8,3.5,27.5,2.8,42.2c-3.9-12.6-8.5-25-11.6-37.7c-3.2-12.9-5.8-26.2-7.2-39.4
					c-1.5-13.6-1.2-27.3-1.6-40.7c-42.6,21.3-49,96.1-18.6,186.8c-11.5-17.1-22.9-34.2-36-53.7c-24.8,52.6,4.6,91.3,29.7,132.5
					c-10.8-11.6-21.6-23.2-33.5-35.9c-12.6,48,9.7,80.2,39.8,111.4c-12.1-8.3-24.3-16.7-36.3-25c-12,25.5,2.1,46.7,56.9,88.8
					c-15.4-5.9-30.8-11.8-47.2-18.1c0.4,18.1,9.6,32.2,23.4,41.4c13.8,9.3,25.2,27.6,47.7,16.6c5-2.4,14.3,4.5,21.8,6.5
					c5.8,1.6,11.9,2.3,14.4,6.4c-10-11.6-20.3-22.9-29.8-34.8c-9.9-12.4-15.7-26.5-13.2-44.2c18.9,11.9,36.8,23.1,54.8,34.4
					c1-1,1.9-2.1,2.8-3.1c-36.6-27.7-74.8-54.4-66.7-111.2c23.1,18.8,44,35.8,64.9,52.8c1-1,2-2,3-3c-4.8-5.5-9.8-10.8-14.4-16.4
					c-28-33.9-44.7-70.5-29.4-115.6c1.5-4.3-0.9-10.6-2.9-15.4c-9.2-21.3-18.9-42.4-25.2-65.1c11.6,22.6,22.3,45.8,35.2,67.7
					c13.2,22.4,28.4,43.6,46.3,63.6c-2-5.8-4-11.6-6-17.3c-9.5-26.6-14.3-53.6-9.7-82.1c1.1-6.5-1.1-14.3-3.9-20.6
					c-14.8-34-25-69-25.5-106.2c10.1,34.8,20.3,69.8,31.2,107.1C390,215.8,392.1,205.4,387.1,189.7z"/>
				<linearGradient id="SVGID_5_" gradientUnits="userSpaceOnUse" x1="463.504" y1="614.6741" x2="258.1799" y2="409.3499">
					<stop  offset="0" style="stop-color:#F14E9E"/>
					<stop  offset="1" style="stop-color:#F77678"/>
				</linearGradient>
				<path class="st2" d="M496.2,612.9L496.2,612.9c-10.3-0.3-19.7-3.3-27.5-11.9c13.8-4.4,26.9-8.7,40-12.9
					c-0.1-0.9-0.2-1.8-0.4-2.7c-29.1,6.7-58.3,14.5-83.2-13.2c19-3.6,36.2-6.9,53.4-10.2c-0.1-0.9-0.1-1.8-0.2-2.8
					c-4.7,0.1-9.5,0.3-14.2,0.3l-80.7-5.8c-13.3-1.4-52.7-17-67.8-18.6c15.8,34.3,47.3,35.8,78.3,40.6c-10.3,0.5-20.5,1.1-31.8,1.7
					c18.6,26.3,44,28.7,72.1,26.7c-9.2,2.6-18.4,5.1-27.6,7.7c7.7,16.6,24.1,18.5,67.9,8.7c-9.4,5.2-18.8,10.4-28.7,15.9
					c9.2,7.4,20,8.7,30.4,5.7c10.4-3,24.2-1.1,28.2-16.8c0.9-3.5,8.2-5.2,12.3-8.1c3.2-2.2,6.1-5,9.2-4.5
					C516,612.8,506.1,613.2,496.2,612.9z"/>
			</g>
			<g>
				<linearGradient id="SVGID_6_" gradientUnits="userSpaceOnUse" x1="539.8969" y1="500.8662" x2="897.7095" y2="500.8662">
					<stop  offset="0" style="stop-color:#F7826B"/>
					<stop  offset="1" style="stop-color:#FBD533"/>
				</linearGradient>
				<path class="st3" d="M884.7,487.2c-7.3-9.2-15.8-17.4-24.6-25.1c21.1-23-10.1-65.7-57.5-95.3c0.5-5.9,1-11.8-1.1-16.7
					c-12.2-29-49.7-56.3-85.5-62.5c9.8,8.8,19.8,22,20,25.1c-28.1,0-32.6-1.5-60.6-1.5c-16,0.4-37.4,2.7-39.1,5
					c7.2,4.2,24.9,11.8,32.7,16.4c-26.9,12.8-52.1,24.7-77.3,36.7c0.5,2.2,1,4.5,1.5,6.7c27.5,3.1,60,5.8,87.4,8.9
					c-0.1,2-5.3,4.3-5.4,6.3c-21.8,0-46.4-6.4-64.6,1.7c-20.2,8.9-36.7,29.4-50.7,47.9c-13,17.2-29.1,36.7-14.3,63.9
					c7.7-12.2,14.2-22.5,20.8-32.9c-9.8,24.9-26.2,48.4,6.1,72.3c3.9-40.3,18.1-74.4,51.2-97.6c-73.9,90.6-41.6,133.9,2.1,192.5
					c19.4-36,23.9-73.2,20.5-112.4c-1.7-19.8-0.5-40,0.8-60c0.5-6.9,5.2-13.5,6.3-16.1c-0.5,24.5-0.9,52.1-1.8,79.6
					c-0.7,23-2,46-3,69c-0.2,4.3-2,9.4-0.3,12.7c15.5,31.4,31.6,62.6,50.2,98.9c17.7-53.4,19.8-98.8-3.1-143.8
					c-8.8-17.3-18.6-35-22.2-53.7c-3.1-16.1-1.7-33.2,0.6-50.2c-3.4,38,15.7,70.4,28,104.8c9,25.2,12,29.6,17.7,56.1
					c1.7,7.9,3.7,40,9.4,45.6c15.6,15.6,32.6,29.9,48.7,44.3c0,0,8-18,8.6-19.9c2.2-6.9,3.6-14,4.1-21.1c1.1-13.7-1-27.4-5.7-40.3
					c-2.7-7.6-6.3-14.8-10.6-21.7c-4.8-7.7-9.2-14.5-17.2-18.8c-5.5-3-10.4-6.8-15-11.1c-19.7-18.5-31.8-44.7-40.3-69.9
					c-4-12-7.7-24.7-9.3-37.3c5.9,12.8,12.1,25.3,18.8,37.7c7.8,14.6,14.9,30.1,24.7,43.5c3.4,4.6,7,8.9,10.8,13.2
					c3.2,3.6,5.8,7.4,9.7,10.3c4.9,3.7,10,6.8,14.2,11.4c4.4,4.8,8.1,10.2,11.8,15.5c4,5.8,7.7,11.6,11.4,17.6
					c0.6,1.9,1.2,3.8,1.7,5.8c1,3.5,2.1,7,3.1,10.5c0.9,3.2,1.9,6.5,2.8,9.7c0.5,1.9,0.6,3.9,1.4,5.7c0.6,1.3,2.1,8.5,3.2,8.7
					c0.5,0.1,1.9-3.3,2.4-4.7c0.2-0.8,1.8-6.3,1.7-8c-0.2-2.8-0.3-5.5-0.6-8.2c-0.2-1.6-0.4-3.2-0.6-4.8
					c-2.1-19.2-12.5-36.5-19.5-54.2c-2.9-7.2-5.8-14.4-8.8-21.6c-2.7-6.3-5.8-12.4-7.9-18.9c-2.9-8.9-6.3-27.1,1.3-34.6
					c1.1-1.1,3.6-2.9,5.8-3.6c3.8,2.4,7.5,4.7,11.1,7c10.6,4.9,20.7,10.7,32,13.8c11.1,3.1,22.6,4.4,34,5.4
					c-7.1-7.9-17.6-13.6-25.7-20.8c-3.8-3.3-8.2-6.3-11.4-10.3c-3.1-3.9-3-9.7-6.2-13c10,6.1,68.5,38,53.9,54.6
					c11.1-2.3,26-8.8,29.4-20.9C900.3,508.8,891.8,496.2,884.7,487.2z M821.1,459c-38.2-5.8-21.7-27.6-24.4-47.1
					c9,8.5,19.9,18.3,25.8,31.7c3.7,9.2,6.6,10.1,16.6,12.2L821.1,459z"/>
				<g>
					<linearGradient id="SVGID_7_" gradientUnits="userSpaceOnUse" x1="412.2485" y1="988.1748" x2="412.2485" y2="780.363">
						<stop  offset="0" style="stop-color:#FAB944"/>
						<stop  offset="1" style="stop-color:#F7826B"/>
					</linearGradient>
					<path class="st4" d="M334.5,831.1L334.5,831.1c3,4.8,5.5,10.1,7.1,15.6c8.3,28.9,14.3,58.7,34.8,82.4c1.8,2.1,2.7,5.1,3.9,7.7
						c6.9,14.6,10.5,37.4,21.5,42c20.9,8.6,46.1,6.8,71.9,9.5c-1.4-11.6-2.3-19.7-3.3-28.3c7.1,7.3,13.4,13.8,22.2,22.9
						c7-33.6,2.4-40.7-22.9-48.9c-9.4-3-18.7-8.2-26.1-14.7c-29-25-35.5-91.6-12.8-121.7c2.1-2.8,4-5.6,6.6-9.3
						c-33.1-13.1-62.5-8.9-91.5,5.8C328.5,802.8,324.2,814.4,334.5,831.1z"/>
					<linearGradient id="SVGID_8_" gradientUnits="userSpaceOnUse" x1="800.0105" y1="948.3557" x2="800.0105" y2="753.5029">
						<stop  offset="0" style="stop-color:#F7826B"/>
						<stop  offset="1" style="stop-color:#F9AA4F"/>
					</linearGradient>
					<path class="st5" d="M806.3,845.5c-13.7,33.7-20.9,58.2-5.9,95.5c3,3.8,8.9,6.7,13.8,7.3c3.9-7.2,13.5-23.7,13.5-23.7
						s-0.4,13.2,0.5,22.3c8.1-1.8,12.7-5.5,19.4-7.8c0.7-9,1.8-20.5,1.8-20.5s3.8,8.9,7.9,16.4c6.8-4.8,9.3-13.7,7.5-23.9
						c-4.3-24.4-2.1-48.1-6.7-75c-3.2-18.8-15.6-29.3-32.7-36.2c-24.3-9.7-47.7-21.1-59.5-46.6c-10.8,23.2-21.6,46.6-31.2,67.3
						c19.3,11.3,39.3,23,60.4,35.3c0.8-1.6,3.3-6.6,5.8-11.5C802.7,844.8,804.5,845.2,806.3,845.5z"/>
					<linearGradient id="SVGID_9_" gradientUnits="userSpaceOnUse" x1="450.687" y1="1012" x2="450.687" y2="621.5806">
						<stop  offset="0" style="stop-color:#FBD533"/>
						<stop  offset="1" style="stop-color:#F7826B"/>
					</linearGradient>
					<path class="st6" d="M264.9,625.3L264.9,625.3c-73.6,10.8-132.4,72.9-138.2,138.5c-2.4,26.9,5.8,46.7,29.1,65.2
						c-22.3-54.1-9.3-98.5,26.1-137.8c27.8-30.9,60.9-50.2,101.5-47.6c-11.3,28.6-20.3,58.9-34.9,86.2c-11.2,20.9-28.4,39-44.9,56.6
						c-16.5,17.6-38.2,31.2-27.9,61.3c2.3,6.6-0.4,16.1-3.2,23.2c-15.4,39.1,3.8,70.9,21.5,102.6c4.1,7.4,14.1,14.1,22.6,15.8
						c18.8,3.9,38.3,4.6,60.9,6.9c-3.9-12.6-5.5-10.4-8.4-19.6l9.1,3.9c6.5,5.2,10.6,9.2,14.2,11.7c3.5,2.4,1.3,2.6,8.3,2.3
						c-1-6.1-9.8-20.2-10.9-26.9c4.7,3.3,14.8,8.8,17.9,11c6.1-16.7-3.9-36.8-23.1-38c-26.2-1.6-31.7-16.1-32.7-37.6
						c-0.7-15-5.2-30.1-4.3-45c1.9-32.4,23.7-51.1,52.1-58.9c42.2-11.5,81.4-28.4,117.9-52.1c3.3-2.1,7.7-2.5,13-1.1
						c-10.3,6.6-20.6,13.1-34.2,21.8c32.6,4.3,60.7,7.9,89.1,11.7v26c16.1,0.9,31.7,1.8,48.9,2.7c-2.6,7.7-4.9,14.8-9.1,27.3
						c32.1-6.3,60.5-11.8,92.4-18c-8.2-12-8.3-28.8-15.1-38.9c4.5-6.8,3-6.4,5.9-10.8c6.9,14.9,16.2,30.2,20.8,46.8
						c3.5,12.4,2.7,26.9,0.6,39.9c-2.1,13.2-8.2,25.7-14.1,42.8c11-3.1,18-5.1,27.2-7.7c-18.2,30.7-5.6,61.3-0.7,91.2
						c1.5,8.9,13.4,20.5,22.6,22.7c22.1,5.3,54.8,5.8,79.3,8.5l-5.3-15.6c8.8,8.7,5.9,6.2,12.4,11.1c3,1.6,12.1,3.2,14.8,1.6
						c-2.9-10.4-8.7-15.5-11.6-25.9c0.2-0.1,0.5,0,0.7,0.1c1.8,0.5,3.4,1.6,5.1,2.4c1.4,0.6,2.3,1.8,3.2,3c0.9,1.2,1.9,2.3,2.8,3.5
						c0.7,1,1.3,2,2.1,2.8c0.7,0.8,1.4,1.6,2.2,2.4c8.8-13.7,3.7-22.7-6.2-30.2c-2.7-2.1-6.6-3.2-10.1-3.7
						c-70.1-10.4-67.2-47.9-51.8-109.2c3.1-12.5,15-22.7,21.4-34.7c10.8-20.2,23-40.2,29.9-61.7c10.1-31.7-5.7-64.3-38.8-84.2
						c-1.1,18.6-2.2,35.4-3.3,52.2c-1.6,1.2-3.2,2.5-4.9,3.7c-10.9-13.9-22.5-27.4-32.6-41.9c-10.6-15.3-19.8-31.5-30.7-49.3
						c-5,8-8.9,14.1-14.7,23.2c-11.5-12.5-21.5-23.4-33-35.8c-26.6,36.7-60.9,58.2-105.5,61.1c-5,0.3-10.1,0.8-15.1,0.6
						c-25.4-0.8-26.3-1.7-29.4-26.1c-17.3-3.7-34.7-5.3-50.5-11.3c-15.9-6-17.2-15.1-8.3-28.3C346.3,622.5,304.9,619.4,264.9,625.3z
						"/>
				</g>
			</g>
		</g>
	</g>
	<g>
		<linearGradient id="SVGID_10_" gradientUnits="userSpaceOnUse" x1="126.2904" y1="805.853" x2="653.98" y2="805.853">
			<stop  offset="0" style="stop-color:#FBD533"/>
			<stop  offset="1" style="stop-color:#F7826B"/>
		</linearGradient>
		<path class="st7" d="M155.7,829c-22.3-54.1-9.3-98.5,26.1-137.8c22.6-25.1,48.7-42.6,79.5-46.8c2.4-0.3,4.8-0.6,7.2-0.7
			c2.4-0.2,4.9-0.3,7.4-0.3c2.5,0,5,0.1,7.5,0.2c-11.3,28.6-20.3,58.9-34.9,86.2c-2.1,3.9-4.4,7.7-6.9,11.5c-2.5,3.7-5.1,7.4-7.9,11
			c-9.2,12-19.8,23.1-30.1,34.1c-5.7,6.1-12,11.6-17.4,17.6c-1.5,1.6-2.9,3.3-4.2,5c-0.9,1.1-1.7,2.3-2.5,3.4
			c-0.8,1.2-1.5,2.4-2.2,3.6c-0.7,1.2-1.3,2.5-1.8,3.8c-1.3,3.2-2.2,6.7-2.5,10.4c-0.4,5.2,0.3,11,2.6,17.6c0,0,0,0,0,0.1
			c2.3,6.6,0,16.2-3.2,23.2c0,0,0,0,0,0c-15.4,39.1,3.8,70.9,21.5,102.6c4.1,7.4,14.1,14.1,22.6,15.8c1.3,0.3,2.5,0.5,3.8,0.7
			c-17.5-23.4-40.3-61.3-23.4-121.4c6.6-23.6,22.3-62.8,43.3-82.6c23-21.7,20.7-63,55.5-83.9c22.9-13.8,39.3-18.9,55.5-20.3
			c18.1-1.5,52.4,6.1,67.7,12.2c46,18.4,86.1,58.9,212.5-6.8c22.3-11.6,14.9-8.1,22.4-31.8c-0.8-1.4-1.6-2.7-2.5-4.1
			c-1.1-1.8-2.2-3.7-3.4-5.6c-0.3-0.5-0.6-1-0.9-1.5c-1.2-1.9-2.4-3.9-3.6-5.8c0,0-0.1-0.1-0.1-0.1c-5,8-8.9,14.1-14.7,23.2v0v0
			c-2.9-3.1-5.6-6.1-8.4-9.1c-8.2-8.9-16-17.4-24.6-26.7c-1.7,2.3-3.4,4.5-5.1,6.7c-11.2,14.1-23.7,25.7-37.7,34.5
			c-5.4,3.4-11,6.4-16.8,8.9c-14,6.1-29.2,9.9-46,10.9c-1.3,0.1-2.5,0.2-3.8,0.3c-2.5,0.2-5,0.3-7.6,0.4c-1.3,0-2.5,0-3.8,0
			c-14.3-0.5-20.8-1-24.4-5.6c-0.2-0.3-0.4-0.5-0.6-0.8c-0.4-0.6-0.7-1.2-1-1.9c-0.1-0.3-0.3-0.7-0.4-1.1c-0.3-0.7-0.5-1.6-0.7-2.4
			c-0.2-0.9-0.4-1.8-0.6-2.9c-0.4-2-0.8-4.4-1.1-7.1c-0.2-1.3-0.4-2.8-0.6-4.3c-11.9-2.5-23.8-4.1-35.3-6.8c-1-0.2-2.1-0.5-3.1-0.8
			c-4.1-1.1-8.2-2.3-12.1-3.8c-15.9-6-17.2-15.1-8.3-28.3c-5.1,0.1-10.2,0.2-15.3,0.2c-12.8,0-25.6-0.2-38.4-0.3
			c-7.7,0-15.4,0-23,0.2c-10.2,0.2-20.4,0.7-30.5,1.7c-5,0.5-10.1,1.1-15.1,1.8c-11.5,1.7-22.6,4.6-33.3,8.6
			c-3.2,1.2-6.3,2.5-9.4,3.9c-6.2,2.8-12.2,5.9-17.9,9.4c-1.9,1.2-3.8,2.4-5.7,3.6c-10.3,6.8-19.7,14.6-28.2,23.2
			c-8.5,8.6-15.9,18-22.2,28c-0.6,0.9-1.1,1.8-1.7,2.7c-1.1,1.8-2.2,3.7-3.2,5.6c-0.5,0.9-1,1.9-1.5,2.8
			c-8.3,16-13.6,33.2-15.1,50.6c-0.1,0.8-0.1,1.7-0.2,2.5c-0.1,1.7-0.2,3.3-0.2,4.9C126,794.3,134.6,812.2,155.7,829z"/>
		<linearGradient id="SVGID_11_" gradientUnits="userSpaceOnUse" x1="401.3062" y1="988.1748" x2="401.3062" y2="783.3273">
			<stop  offset="0" style="stop-color:#FBD533"/>
			<stop  offset="1" style="stop-color:#F7826B"/>
		</linearGradient>
		<path class="st8" d="M473.7,988.2c-0.1-0.5-0.1-0.9-0.2-1.3c-12.5-5.4-27.9-14.7-46.3-30.1c-51.2-43.1-53.5-145.6-53.2-173.4
			c-9.5,2.3-18.9,6-28.2,10.7c-17.3,8.8-21.6,20.4-11.3,37.1c3,4.8,5.5,10.1,7.1,15.6c8.3,28.9,14.3,58.7,34.8,82.4
			c1.8,2.1,2.7,5.1,3.9,7.7c6.9,14.6,10.5,37.4,21.5,42C422.7,987.3,447.9,985.4,473.7,988.2z"/>
		<linearGradient id="SVGID_12_" gradientUnits="userSpaceOnUse" x1="713.5371" y1="1009.4767" x2="713.5371" y2="673.5967">
			<stop  offset="0" style="stop-color:#FAB944"/>
			<stop  offset="1" style="stop-color:#F7826B"/>
		</linearGradient>
		<path class="st9" d="M764.4,967.1c-2.7-2.1-6.6-3.2-10.1-3.7c-70.1-10.4-67.2-47.9-51.8-109.2c3.2-12.5,15-22.7,21.4-34.7
			c10.8-20.2,23-40.2,29.9-61.7c10.1-31.7-5.7-64.3-38.8-84.2c-0.1,1.8-0.2,3.5-0.3,5.2c6.4,25.2,10.2,49.3-34.4,138.5
			c-74.5,148.9,16.2,174.7,61.7,187.9l-3-8.8c8.8,8.7,5.9,6.2,12.4,11.1c0.2,0.1,0.3,0.2,0.5,0.2c5.3,1.1,9.8,1.7,13,1.8
			c0.5-0.1,0.9-0.3,1.3-0.5c-2.9-10.4-8.7-15.5-11.6-25.9c0.2-0.1,0.5,0,0.7,0.1c1.8,0.5,3.4,1.6,5.1,2.4c1.4,0.6,2.3,1.8,3.2,3
			c0.9,1.2,1.9,2.3,2.8,3.5c0.7,1,1.3,2,2.1,2.8c0.7,0.8,1.4,1.6,2.2,2.4C779.3,983.6,774.3,974.6,764.4,967.1z"/>
		<g>
			<linearGradient id="SVGID_13_" gradientUnits="userSpaceOnUse" x1="396.5065" y1="800.3383" x2="617.9177" y2="800.3383">
				<stop  offset="0" style="stop-color:#F7826B"/>
				<stop  offset="1" style="stop-color:#F9A851"/>
			</linearGradient>
			<path class="st10" d="M617.9,817.5c-8.2-12-8.3-28.8-15.1-38.9c2-3,2.8-4.6,3.3-5.8c-5.5,9.2-22.6,25.1-72,8
				c-60.5-21-125.4-15-136.4-13.7c-0.4,0.3-0.8,0.5-1.2,0.8c32.6,4.3,60.7,7.9,89.1,11.7v26c16.1,0.9,31.7,1.8,48.9,2.7
				c-2.6,7.7-4.9,14.8-9.1,27.3C557.6,829.2,586,823.6,617.9,817.5z"/>
			<linearGradient id="SVGID_14_" gradientUnits="userSpaceOnUse" x1="608.0557" y1="768.3712" x2="608.4668" y2="768.3712">
				<stop  offset="0" style="stop-color:#FBD533"/>
				<stop  offset="1" style="stop-color:#F7826B"/>
			</linearGradient>
			<path class="st11" d="M608.5,768.2l-0.1-0.3c-0.1,0.3-0.2,0.6-0.3,0.9C608.2,768.6,608.3,768.4,608.5,768.2z"/>
		</g>
		<linearGradient id="SVGID_15_" gradientUnits="userSpaceOnUse" x1="807.7167" y1="946.9998" x2="807.7167" y2="753.5028">
			<stop  offset="0" style="stop-color:#F88E63"/>
			<stop  offset="1" style="stop-color:#FAB944"/>
		</linearGradient>
		<path class="st12" d="M847.6,939.2c0.7-9,1.8-20.5,1.8-20.5s3.8,8.9,7.9,16.4c6.8-4.8,9.3-13.7,7.5-23.9
			c-4.3-24.4-2.1-48.1-6.7-75c-3.2-18.8-15.6-29.3-32.7-36.2c-24.3-9.7-47.7-21.1-59.5-46.6c-5.3,11.4-10.6,22.8-15.7,34
			c11.9,15,34.5,39.2,60.2,44.7c27.4,5.9,22.3,68.2,17.3,102.4c0,4,0.2,8.6,0.6,12.4C836.3,945.2,840.9,941.5,847.6,939.2z"/>
		<g>
			<linearGradient id="SVGID_16_" gradientUnits="userSpaceOnUse" x1="714.174" y1="366.4935" x2="714.3643" y2="366.4935">
				<stop  offset="0" style="stop-color:#F7826B"/>
				<stop  offset="1" style="stop-color:#FBD533"/>
			</linearGradient>
			<path class="st13" d="M714.4,366.5c-0.1,0-0.2,0-0.2,0S714.3,366.5,714.4,366.5z"/>
			<linearGradient id="SVGID_17_" gradientUnits="userSpaceOnUse" x1="665.4403" y1="481.8735" x2="897.7097" y2="481.8735">
				<stop  offset="0" style="stop-color:#FBA800"/>
				<stop  offset="1" style="stop-color:#FFEF21"/>
			</linearGradient>
			<path class="st14" d="M789.5,583.7c-2.9-7.2-5.8-14.4-8.8-21.6c-2.7-6.3-5.8-12.4-7.9-18.9c-2.9-8.9-6.4-27.1,1.3-34.6
				c1.1-1.1,3.6-2.9,5.8-3.6c3.8,2.4,7.5,4.7,11.1,7c10.6,4.9,20.7,10.7,32,13.8c11.1,3.1,22.6,4.4,34,5.4
				c-7.1-7.9-17.6-13.6-25.7-20.8c-3.8-3.3-8.2-6.3-11.4-10.3c-3.1-3.9-3-9.7-6.2-13c10,6.1,68.5,38,53.9,54.6
				c11.1-2.3,26-8.8,29.4-20.9c3.4-12.1-5.1-24.7-12.2-33.7c-7.3-9.2-15.8-17.4-24.6-25.1c20.5-22.4-8.5-63.6-53.9-93
				c-10.9-3-25.6-5.5-37.9-2.6c-22,5.2-51.5,0.4-54,0c2.9,0.5,40.1,6.8,30.9,9.4c-9.5,2.7-35.2,20.3-39.3,40.6
				c-4.1,20.3-17.6,4.1-40.6,20.3c0,0,21.7-8.1,32.5-2.7c10.8,5.4-21.7,10.8-1.4,27.1s29.8,70.4,50.1,83.9
				c13.1,8.7,35.2,35.5,49.3,53.4C793.7,593.6,791.4,588.7,789.5,583.7z M796.6,411.9c8.9,8.5,19.9,18.3,25.8,31.7
				c3.7,9.2,6.6,10.1,16.6,12.2l-18,3.3C782.9,453.2,799.3,431.4,796.6,411.9z"/>
		</g>
		<linearGradient id="SVGID_18_" gradientUnits="userSpaceOnUse" x1="557.1434" y1="443.7142" x2="683.0386" y2="443.7142">
			<stop  offset="0.1681" style="stop-color:#F77C6B"/>
			<stop  offset="0.8709" style="stop-color:#FAC13F;stop-opacity:0"/>
		</linearGradient>
		<path class="st15" d="M600.5,411.1c0,0-33.8,28.4-43.3,50.1c0,0,9.3-8.3,20.3-6.8c9.5,1.4-5.4,25.7-4.1,32.5
			c0,0,16.2-32.5,46-56.9c21.8-17.8,63.6-24.4,63.6-24.4S633,390.8,600.5,411.1z"/>
		<linearGradient id="SVGID_19_" gradientUnits="userSpaceOnUse" x1="615.0349" y1="604.7307" x2="615.0349" y2="459.8836">
			<stop  offset="0" style="stop-color:#F9B24B"/>
			<stop  offset="1" style="stop-color:#F7826B;stop-opacity:0"/>
		</linearGradient>
		<path class="st16" d="M632.2,468.2c0.4,5.8,0.2,11.6-0.7,17.4c-2.1,12.6-5.2,36.7-1.3,47.4c5.4,14.9,4.1,51.4-4.1,71.7
			c0,0-36.6-32.5-28.4-71.7s33.8-59.6,33.8-73.1L632.2,468.2z"/>
		<linearGradient id="SVGID_20_" gradientUnits="userSpaceOnUse" x1="678.3083" y1="662.9403" x2="678.3083" y2="543.8137">
			<stop  offset="0.2025" style="stop-color:#FAB944"/>
			<stop  offset="1" style="stop-color:#F89B5A;stop-opacity:0"/>
		</linearGradient>
		<path class="st17" d="M664.1,543.8c0,0,1.4,47.4-1.4,56.9l29.8,62.3C692.5,662.9,703.3,598,664.1,543.8z"/>
		<linearGradient id="SVGID_21_" gradientUnits="userSpaceOnUse" x1="745.3635" y1="677.8311" x2="745.3635" y2="574.949">
			<stop  offset="0" style="stop-color:#FBD533"/>
			<stop  offset="0.6" style="stop-color:#FABC43"/>
			<stop  offset="1" style="stop-color:#F9A652"/>
		</linearGradient>
		<path class="st18" d="M719.6,574.9c0,0,24.4,56.9,21.7,78.5l29.8,24.4c0,0,2.7-42-19-67.7S719.6,574.9,719.6,574.9z"/>
		<linearGradient id="SVGID_22_" gradientUnits="userSpaceOnUse" x1="288.8638" y1="513.0092" x2="288.8638" y2="158.6828">
			<stop  offset="0" style="stop-color:#F14E9E"/>
			<stop  offset="1" style="stop-color:#F77678"/>
		</linearGradient>
		<path class="st19" d="M323,511.3c0,0-30.5-91.4-22.3-142.8c0,0,5.4-10.8,20.3,4.1c0,0-10.8-47.4-4.1-71.7s-36.6-116.4-29.8-142.1
			c0,0-14.9,23,5.4,128.6c0,0,1.4,16.2-19-12.2c-20.3-28.4-12.2,13.5,2.7,39.3c14.9,25.7,6.8,47.4,6.8,47.4s-9.5,1.4-23-16.2
			c-13.5-17.6,1.4,23,20.3,40.6c19,17.6,12.2,56.9,2.7,47.4s-29.8-19,5.4,21.7s5.4,43.3-6.8,32.5S281,522.2,323,511.3z"/>
		<linearGradient id="SVGID_23_" gradientUnits="userSpaceOnUse" x1="346.6196" y1="292.8897" x2="346.6196" y2="170.1893">
			<stop  offset="0" style="stop-color:#F14E9E"/>
			<stop  offset="1" style="stop-color:#F77678"/>
		</linearGradient>
		<path class="st20" d="M346,251.4c0,0-16.2-66.3-12.2-81.2c0,0,20.3,59.6,25.7,58.2c0,0-4.1,48.7,0,62.3S346,251.4,346,251.4z"/>
		<linearGradient id="SVGID_24_" gradientUnits="userSpaceOnUse" x1="487.8525" y1="610.9442" x2="487.8525" y2="216.4804">
			<stop  offset="0" style="stop-color:#F14E9E"/>
			<stop  offset="1" style="stop-color:#F77678"/>
		</linearGradient>
		<path class="st21" d="M517.5,503.6c-0.2-13.9,3.5-28.7,8.9-41.6c4-9.6,3.4-15.6-3.4-22.1c-7.2-7-14.1-14.3-21.8-20.7
			c-61.5-51.7-82.6-120.7-84.9-197.7c0-1.6,0-3.3,0-4.9c-2.7,2.8-5.2,5.6-7.1,8.9c-17,28.1-15.6,58.5-7.5,89
			c12.6,47.7,40.6,85.4,79.2,114.9c15.8,12.1,22.7,25.2,23,44.9c0.4,18.8,3.6,37.8,7.9,56.1c8,34,26.5,61,58,78.1
			c1.5,0.8,2.9,1.7,4.3,2.6l5.9-3.3C540.7,584.5,518.3,549.7,517.5,503.6z"/>
	</g>
</g>
</svg>
